<svg xmlns="http://www.w3.org/2000/svg"  viewBox="0 0 40 40" width="40px" height="40px"><path fill="#e1ebf2" d="M8.545,37.5c-3.333,0-6.045-2.712-6.045-6.045V8.545C2.5,5.212,5.212,2.5,8.545,2.5h22.909 c3.333,0,6.045,2.712,6.045,6.045v22.909c0,3.333-2.712,6.045-6.045,6.045L8.545,37.5L8.545,37.5z"/><path fill="#788b9c" d="M31.455,3C34.512,3,37,5.488,37,8.545v22.909C37,34.512,34.512,37,31.455,37H8.545 C5.488,37,3,34.512,3,31.455V8.545C3,5.488,5.488,3,8.545,3H31.455 M31.455,2H8.545C4.945,2,2,4.945,2,8.545v22.909 C2,35.055,4.945,38,8.545,38h22.909c3.6,0,6.545-2.945,6.545-6.545V8.545C38,4.945,35.055,2,31.455,2L31.455,2z"/><path fill="#c5d4de" d="M37.5,11.5V8.55c0-2.98-2.16-5.46-5-5.96v8.91H37.5z"/><path fill="#788b9c" d="M38,12h-6V1.994l0.587,0.104C35.724,2.649,38,5.363,38,8.55V12z M33,11h4V8.55 c0-2.497-1.649-4.651-4-5.331V11z"/><rect width="5" height="8.5" x="32.5" y="11.5" fill="#8bb7f0"/><path fill="#4e7ab5" d="M38,20.5h-6V11h6V20.5z M33,19.5h4V12h-4V19.5z"/><path fill="#c5d4de" d="M26,27.23c-2.101,2.165-5.132,3.52-8.5,3.52s-6.399-1.355-8.5-3.52c1.882-2.105,4.988-3.48,8.5-3.48 S24.118,25.125,26,27.23z"/><rect width="5" height="8.5" x="32.5" y="20" fill="#ffc49c"/><path fill="#a16a4a" d="M38,29h-6v-9.5h6V29z M33,28h4v-7.5h-4V28z"/><path fill="#bae0bd" d="M37.5,28.5v2.95c0,2.98-2.16,5.46-5,5.96V28.5H37.5z"/><path fill="#5e9c76" d="M32,38.006V28h6v3.45c0,3.187-2.276,5.9-5.413,6.452L32,38.006z M33,29v7.781 c2.351-0.68,4-2.834,4-5.331V29H33z"/><path fill="#788b9c" d="M17.5,31.5C11.159,31.5,6,26.341,6,20S11.159,8.5,17.5,8.5S29,13.659,29,20S23.841,31.5,17.5,31.5z M17.5,9.5C11.71,9.5,7,14.21,7,20s4.71,10.5,10.5,10.5S28,25.79,28,20S23.29,9.5,17.5,9.5z"/><ellipse cx="17.5" cy="17.5" fill="#c5d4de" rx="3.5" ry="4"/><path fill="#788b9c" d="M17.5,22c-2.206,0-4-2.019-4-4.5s1.794-4.5,4-4.5s4,2.019,4,4.5S19.706,22,17.5,22z M17.5,14 c-1.654,0-3,1.57-3,3.5s1.346,3.5,3,3.5s3-1.57,3-3.5S19.154,14,17.5,14z"/><path fill="#788b9c" d="M25.627,27.563C23.633,25.332,20.595,24,17.5,24s-6.133,1.332-8.127,3.563l-0.746-0.666 C10.809,24.457,14.125,23,17.5,23s6.691,1.457,8.873,3.897L25.627,27.563z"/></svg>